<mxfile>
    <diagram id="YJ2Oq8O3aQ3_wY4mN167" name="Page-1">
        <mxGraphModel dx="1004" dy="520" grid="1" gridSize="10" guides="1" tooltips="1" connect="1" arrows="1" fold="1" page="1" pageScale="1" pageWidth="827" pageHeight="1169" background="#F4F1DE" math="0" shadow="0">
            <root>
                <mxCell id="0"/>
                <mxCell id="1" parent="0"/>
                <mxCell id="5" value="" style="edgeStyle=orthogonalEdgeStyle;curved=0;rounded=1;sketch=0;orthogonalLoop=1;jettySize=auto;html=1;strokeColor=#E07A5F;fillColor=#F2CC8F;fontColor=#393C56;" edge="1" parent="1" source="2" target="3">
                    <mxGeometry relative="1" as="geometry">
                        <Array as="points">
                            <mxPoint x="180" y="170"/>
                            <mxPoint x="180" y="170"/>
                        </Array>
                    </mxGeometry>
                </mxCell>
                <mxCell id="2" value="动态&lt;br&gt;代理" style="rounded=0;whiteSpace=wrap;html=1;sketch=0;strokeColor=#E07A5F;fillColor=#F2CC8F;fontColor=#393C56;" vertex="1" parent="1">
                    <mxGeometry x="80" y="140" width="50" height="130" as="geometry"/>
                </mxCell>
                <mxCell id="7" value="" style="edgeStyle=orthogonalEdgeStyle;curved=0;rounded=1;sketch=0;orthogonalLoop=1;jettySize=auto;html=1;strokeColor=#E07A5F;fillColor=#F2CC8F;fontColor=#393C56;" edge="1" parent="1" source="3" target="4">
                    <mxGeometry relative="1" as="geometry">
                        <Array as="points">
                            <mxPoint x="270" y="170"/>
                            <mxPoint x="270" y="170"/>
                        </Array>
                    </mxGeometry>
                </mxCell>
                <mxCell id="3" value="编&lt;br&gt;解&lt;br&gt;码" style="rounded=0;whiteSpace=wrap;html=1;sketch=0;strokeColor=#E07A5F;fillColor=#F2CC8F;fontColor=#393C56;" vertex="1" parent="1">
                    <mxGeometry x="200" y="140" width="50" height="130" as="geometry"/>
                </mxCell>
                <mxCell id="11" value="" style="edgeStyle=orthogonalEdgeStyle;curved=0;rounded=1;sketch=0;orthogonalLoop=1;jettySize=auto;html=1;strokeColor=#E07A5F;fillColor=#F2CC8F;fontColor=#393C56;" edge="1" parent="1" source="4" target="10">
                    <mxGeometry relative="1" as="geometry">
                        <Array as="points">
                            <mxPoint x="380" y="170"/>
                            <mxPoint x="380" y="170"/>
                        </Array>
                    </mxGeometry>
                </mxCell>
                <mxCell id="4" value="网&lt;br&gt;络" style="rounded=0;whiteSpace=wrap;html=1;sketch=0;strokeColor=#E07A5F;fillColor=#F2CC8F;fontColor=#393C56;" vertex="1" parent="1">
                    <mxGeometry x="300" y="140" width="50" height="130" as="geometry"/>
                </mxCell>
                <mxCell id="6" value="序列化" style="text;html=1;align=center;verticalAlign=middle;resizable=0;points=[];autosize=1;fontColor=#393C56;" vertex="1" parent="1">
                    <mxGeometry x="135" y="150" width="50" height="20" as="geometry"/>
                </mxCell>
                <mxCell id="8" value="编码" style="text;html=1;align=center;verticalAlign=middle;resizable=0;points=[];autosize=1;fontColor=#393C56;" vertex="1" parent="1">
                    <mxGeometry x="250" y="150" width="40" height="20" as="geometry"/>
                </mxCell>
                <mxCell id="20" value="" style="edgeStyle=orthogonalEdgeStyle;curved=0;rounded=1;sketch=0;orthogonalLoop=1;jettySize=auto;html=1;strokeColor=#E07A5F;fillColor=#F2CC8F;fontColor=#393C56;" edge="1" parent="1" source="10" target="16">
                    <mxGeometry relative="1" as="geometry">
                        <Array as="points">
                            <mxPoint x="530" y="180"/>
                            <mxPoint x="530" y="180"/>
                        </Array>
                    </mxGeometry>
                </mxCell>
                <mxCell id="10" value="网&lt;br&gt;络" style="rounded=0;whiteSpace=wrap;html=1;sketch=0;strokeColor=#E07A5F;fillColor=#F2CC8F;fontColor=#393C56;" vertex="1" parent="1">
                    <mxGeometry x="450" y="140" width="50" height="130" as="geometry"/>
                </mxCell>
                <mxCell id="12" value="传输" style="text;html=1;align=center;verticalAlign=middle;resizable=0;points=[];autosize=1;fontColor=#393C56;" vertex="1" parent="1">
                    <mxGeometry x="380" y="160" width="40" height="20" as="geometry"/>
                </mxCell>
                <mxCell id="14" value="" style="endArrow=classic;html=1;strokeColor=#E07A5F;fillColor=#F2CC8F;fontColor=#393C56;entryX=1;entryY=0.75;entryDx=0;entryDy=0;exitX=0;exitY=0.75;exitDx=0;exitDy=0;" edge="1" parent="1" source="10" target="4">
                    <mxGeometry width="50" height="50" relative="1" as="geometry">
                        <mxPoint x="380" y="300" as="sourcePoint"/>
                        <mxPoint x="430" y="250" as="targetPoint"/>
                    </mxGeometry>
                </mxCell>
                <mxCell id="15" value="传输" style="text;html=1;align=center;verticalAlign=middle;resizable=0;points=[];autosize=1;fontColor=#393C56;" vertex="1" parent="1">
                    <mxGeometry x="380" y="230" width="40" height="20" as="geometry"/>
                </mxCell>
                <mxCell id="24" value="" style="edgeStyle=orthogonalEdgeStyle;curved=0;rounded=1;sketch=0;orthogonalLoop=1;jettySize=auto;html=1;strokeColor=#E07A5F;fillColor=#F2CC8F;fontColor=#393C56;" edge="1" parent="1" source="16" target="17">
                    <mxGeometry relative="1" as="geometry">
                        <Array as="points">
                            <mxPoint x="640" y="170"/>
                            <mxPoint x="640" y="170"/>
                        </Array>
                    </mxGeometry>
                </mxCell>
                <mxCell id="16" value="编&lt;br&gt;解&lt;br&gt;码" style="rounded=0;whiteSpace=wrap;html=1;sketch=0;strokeColor=#E07A5F;fillColor=#F2CC8F;fontColor=#393C56;" vertex="1" parent="1">
                    <mxGeometry x="550" y="140" width="50" height="130" as="geometry"/>
                </mxCell>
                <mxCell id="17" value="动态&lt;br&gt;代理" style="rounded=0;whiteSpace=wrap;html=1;sketch=0;strokeColor=#E07A5F;fillColor=#F2CC8F;fontColor=#393C56;" vertex="1" parent="1">
                    <mxGeometry x="670" y="140" width="50" height="130" as="geometry"/>
                </mxCell>
                <mxCell id="21" value="解码" style="text;html=1;align=center;verticalAlign=middle;resizable=0;points=[];autosize=1;fontColor=#393C56;" vertex="1" parent="1">
                    <mxGeometry x="500" y="160" width="40" height="20" as="geometry"/>
                </mxCell>
                <mxCell id="25" value="反序列化" style="text;html=1;align=center;verticalAlign=middle;resizable=0;points=[];autosize=1;fontColor=#393C56;" vertex="1" parent="1">
                    <mxGeometry x="600" y="150" width="60" height="20" as="geometry"/>
                </mxCell>
                <mxCell id="27" value="" style="endArrow=classic;html=1;strokeColor=#E07A5F;fillColor=#F2CC8F;fontColor=#393C56;exitX=0;exitY=0.75;exitDx=0;exitDy=0;entryX=1;entryY=0.75;entryDx=0;entryDy=0;" edge="1" parent="1" source="17" target="16">
                    <mxGeometry width="50" height="50" relative="1" as="geometry">
                        <mxPoint x="600" y="290" as="sourcePoint"/>
                        <mxPoint x="650" y="240" as="targetPoint"/>
                    </mxGeometry>
                </mxCell>
                <mxCell id="28" value="序列化" style="text;html=1;align=center;verticalAlign=middle;resizable=0;points=[];autosize=1;fontColor=#393C56;" vertex="1" parent="1">
                    <mxGeometry x="605" y="220" width="50" height="20" as="geometry"/>
                </mxCell>
                <mxCell id="29" value="" style="endArrow=classic;html=1;strokeColor=#E07A5F;fillColor=#F2CC8F;fontColor=#393C56;entryX=1;entryY=0.75;entryDx=0;entryDy=0;exitX=0;exitY=0.75;exitDx=0;exitDy=0;" edge="1" parent="1" source="16" target="10">
                    <mxGeometry width="50" height="50" relative="1" as="geometry">
                        <mxPoint x="520" y="350" as="sourcePoint"/>
                        <mxPoint x="570" y="300" as="targetPoint"/>
                    </mxGeometry>
                </mxCell>
                <mxCell id="30" value="编码" style="text;html=1;align=center;verticalAlign=middle;resizable=0;points=[];autosize=1;fontColor=#393C56;" vertex="1" parent="1">
                    <mxGeometry x="510" y="220" width="40" height="20" as="geometry"/>
                </mxCell>
                <mxCell id="31" value="" style="endArrow=classic;html=1;strokeColor=#E07A5F;fillColor=#F2CC8F;fontColor=#393C56;exitX=0;exitY=0.75;exitDx=0;exitDy=0;entryX=1;entryY=0.75;entryDx=0;entryDy=0;" edge="1" parent="1" source="4" target="3">
                    <mxGeometry width="50" height="50" relative="1" as="geometry">
                        <mxPoint x="220" y="360" as="sourcePoint"/>
                        <mxPoint x="270" y="310" as="targetPoint"/>
                    </mxGeometry>
                </mxCell>
                <mxCell id="32" value="解码" style="text;html=1;align=center;verticalAlign=middle;resizable=0;points=[];autosize=1;fontColor=#393C56;" vertex="1" parent="1">
                    <mxGeometry x="260" y="220" width="40" height="20" as="geometry"/>
                </mxCell>
                <mxCell id="33" value="" style="endArrow=classic;html=1;strokeColor=#E07A5F;fillColor=#F2CC8F;fontColor=#393C56;exitX=0;exitY=0.75;exitDx=0;exitDy=0;entryX=1;entryY=0.75;entryDx=0;entryDy=0;" edge="1" parent="1" source="3" target="2">
                    <mxGeometry width="50" height="50" relative="1" as="geometry">
                        <mxPoint x="120" y="320" as="sourcePoint"/>
                        <mxPoint x="170" y="270" as="targetPoint"/>
                    </mxGeometry>
                </mxCell>
                <mxCell id="34" value="反序列化" style="text;html=1;align=center;verticalAlign=middle;resizable=0;points=[];autosize=1;fontColor=#393C56;" vertex="1" parent="1">
                    <mxGeometry x="135" y="220" width="60" height="20" as="geometry"/>
                </mxCell>
                <mxCell id="35" value="&lt;font style=&quot;font-size: 15px&quot;&gt;&lt;b&gt;调用方&lt;/b&gt;&lt;/font&gt;" style="text;html=1;align=center;verticalAlign=middle;resizable=0;points=[];autosize=1;fontColor=#393C56;" vertex="1" parent="1">
                    <mxGeometry x="185" y="300" width="60" height="20" as="geometry"/>
                </mxCell>
                <mxCell id="36" value="&lt;font style=&quot;font-size: 16px&quot;&gt;&lt;b&gt;提供方&lt;/b&gt;&lt;/font&gt;" style="text;html=1;align=center;verticalAlign=middle;resizable=0;points=[];autosize=1;fontColor=#393C56;" vertex="1" parent="1">
                    <mxGeometry x="515" y="300" width="60" height="20" as="geometry"/>
                </mxCell>
            </root>
        </mxGraphModel>
    </diagram>
</mxfile>